HIERARCHY
ROOT Hips
{
	OFFSET -13.091600 -28.302996 44.698402
	CHANNELS 6 Xposition Yposition Zposition Zrotation Xrotation Yrotation
	JOINT Chest
	{
		OFFSET -0.673000 0.623899 5.369202
		CHANNELS 6 Xposition Yposition Zposition Zrotation Xrotation Yrotation
		JOINT Chest2
		{
			OFFSET 0.000000 0.000000 4.415001
			CHANNELS 6 Xposition Yposition Zposition Zrotation Xrotation Yrotation
			JOINT Neck
			{
				OFFSET 0.000000 0.000002 10.273300
				CHANNELS 6 Xposition Yposition Zposition Zrotation Xrotation Yrotation
				JOINT Head
				{
					OFFSET 0.000000 0.000000 2.173897
					CHANNELS 6 Xposition Yposition Zposition Zrotation Xrotation Yrotation
					End Site
					{
						OFFSET 0.000000 0.000000 9.961800
					}
				}
			}
			JOINT LeftCollar
			{
				OFFSET 2.359900 -0.565201 5.928101
				CHANNELS 6 Xposition Yposition Zposition Zrotation Xrotation Yrotation
				JOINT LeftShoulder
				{
					OFFSET 5.443700 0.000000 0.000000
					CHANNELS 6 Xposition Yposition Zposition Zrotation Xrotation Yrotation
					JOINT LeftElbow
					{
						OFFSET 0.000000 0.000000 -10.615799
						CHANNELS 6 Xposition Yposition Zposition Zrotation Xrotation Yrotation
						JOINT LeftWrist
						{
							OFFSET 0.000000 -0.000002 -13.110302
							CHANNELS 6 Xposition Yposition Zposition Zrotation Xrotation Yrotation
							End Site
							{
								OFFSET 0.000000 0.000000 -2.173901
							}
						}
					}
				}
			}
			JOINT RightCollar
			{
				OFFSET -2.636600 -1.718800 6.889698
				CHANNELS 6 Xposition Yposition Zposition Zrotation Xrotation Yrotation
				JOINT RightShoulder
				{
					OFFSET -4.139101 0.000000 0.000000
					CHANNELS 6 Xposition Yposition Zposition Zrotation Xrotation Yrotation
					JOINT RightElbow
					{
						OFFSET 0.000000 0.000000 -10.471802
						CHANNELS 6 Xposition Yposition Zposition Zrotation Xrotation Yrotation
						JOINT RightWrist
						{
							OFFSET 0.000000 0.000000 -12.281898
							CHANNELS 6 Xposition Yposition Zposition Zrotation Xrotation Yrotation
							End Site
							{
								OFFSET 0.000000 -0.000002 -2.173901
							}
						}
					}
				}
			}
		}
	}
	JOINT LeftHip
	{
		OFFSET 2.273400 0.176701 -2.518002
		CHANNELS 6 Xposition Yposition Zposition Zrotation Xrotation Yrotation
		JOINT LeftKnee
		{
			OFFSET 0.000000 -0.000002 -20.456402
			CHANNELS 6 Xposition Yposition Zposition Zrotation Xrotation Yrotation
			JOINT LeftAnkle
			{
				OFFSET 0.000000 -0.000002 -16.635300
				CHANNELS 6 Xposition Yposition Zposition Zrotation Xrotation Yrotation
				End Site
				{
					OFFSET 0.000000 -8.812399 0.000001
				}
			}
		}
	}
	JOINT RightHip
	{
		OFFSET -1.914800 0.018101 -2.699299
		CHANNELS 6 Xposition Yposition Zposition Zrotation Xrotation Yrotation
		JOINT RightKnee
		{
			OFFSET 0.000000 -0.000002 -20.148901
			CHANNELS 6 Xposition Yposition Zposition Zrotation Xrotation Yrotation
			JOINT RightAnkle
			{
				OFFSET 0.000000 -0.000002 -16.838301
				CHANNELS 6 Xposition Yposition Zposition Zrotation Xrotation Yrotation
				End Site
				{
					OFFSET 0.000000 -8.328398 0.000001
				}
			}
		}
	}
}
MOTION
Frames: 4
Frame Time: 0.041667
2.364100 -41.160801 44.260605 477.927953 2.014487 3.036949 -0.673000 0.623901 5.369213 -12.659727 11.640416 -5.350099 -0.000002 -0.000001 4.415009 5.111238 -1.777523 -0.268536 -0.000010 -0.000003 10.273300 -29.612388 16.118820 0.554572 0.000000 -0.000002 2.173899 1.668728 -2.030400 -0.767204 2.359897 -0.565202 5.928107 -3.819068 4.425395 -28.931633 5.443691 -0.000001 0.000005 -15.993788 30.783683 -73.657778 0.000003 0.000003 -10.615789 570.730607 -128.238209 202.490425 0.000000 -0.000002 -13.110300 -158.355791 -169.736048 120.912380 -2.636601 -1.718802 6.889709 167.483765 -174.883305 176.640071 -4.139099 -0.000005 0.000000 -11.771193 -353.324839 71.380845 0.000006 0.000002 -10.471801 -6.206934 -38.388911 -27.418374 -0.000001 -0.000002 -12.281900 1.847247 11.171987 64.592361 2.273396 0.176704 -2.517997 -140.476405 -149.006464 -168.523047 0.000004 -0.000003 -20.456398 164.552125 143.741126 -168.315450 -0.000010 -0.000005 -16.635302 39.823855 0.852715 20.648922 -1.914801 0.018104 -2.699292 173.378792 183.008184 190.192751 -0.000005 -0.000003 -20.148901 -6.400905 25.306163 -6.713369 0.000003 -0.000004 -16.838303 -9.349872 22.857795 -2.547734
2.523100 -40.782700 44.251503 479.629435 2.088353 2.992081 -0.672997 0.623895 5.369210 -12.646041 11.533478 -5.275916 -0.000003 -0.000002 4.415007 5.163095 -1.771193 -0.267522 -0.000003 -0.000000 10.273310 -29.014476 15.923642 0.394947 0.000004 -0.000002 2.173893 1.318886 -2.289421 -0.624151 2.359905 -0.565201 5.928108 -2.953521 5.382006 -28.896717 5.443689 -0.000005 0.000000 -16.185445 29.390847 -74.001480 0.000005 -0.000002 -10.615790 570.272165 -128.108176 202.023486 -0.000005 -0.000008 -13.110295 -158.445499 -169.602408 120.997826 -2.636607 -1.718800 6.889712 167.564812 -175.044225 176.792972 -4.139102 -0.000004 0.000002 -11.805591 -353.682030 71.273393 0.000001 -0.000000 -10.471800 -5.765668 -38.453866 -27.066387 0.000006 0.000002 -12.281909 1.495997 11.183294 64.449112 2.273397 0.176699 -2.517993 -141.398535 -149.572468 -168.491601 -0.000003 0.000000 -20.456400 164.511322 143.574920 -168.003502 0.000000 -0.000005 -16.635298 40.313276 0.823128 20.142887 -1.914801 0.018100 -2.699295 173.990258 182.512695 190.575597 -0.000004 -0.000005 -20.148899 -7.293606 26.083420 -6.569263 -0.000005 0.000000 -16.838303 -9.958161 23.010013 -2.919985
2.684399 -40.365700 44.246506 481.351844 2.111903 2.956504 -0.673004 0.623901 5.369211 -12.700637 11.465384 -5.180942 -0.000005 -0.000003 4.415012 5.196734 -1.758414 -0.265553 -0.000001 -0.000003 10.273311 -28.329483 15.675298 0.276219 0.000000 -0.000006 2.173903 1.026847 -2.445885 -0.507164 2.359898 -0.565202 5.928103 -2.978673 5.398877 -28.857717 5.443692 -0.000007 0.000005 -16.276617 29.311391 -73.816873 -0.000005 0.000000 -10.615792 569.649142 -127.838356 201.325918 -0.000009 -0.000000 -13.110301 -158.304701 -169.578393 121.037099 -2.636606 -1.718805 6.889704 167.652348 -175.165720 176.939739 -4.139095 -0.000003 -0.000004 -11.829439 -353.965729 71.124795 -0.000005 -0.000005 -10.471805 -5.973110 -38.231209 -27.088196 -0.000001 0.000001 -12.281902 1.752365 11.169181 64.276431 2.273399 0.176703 -2.517993 -142.430071 -150.261662 -168.607632 -0.000003 0.000002 -20.456404 164.294040 143.094676 -167.399399 -0.000005 -0.000002 -16.635302 40.833548 0.740402 19.870864 -1.914796 0.018100 -2.699301 174.079583 182.278529 190.995804 -0.000003 -0.000001 -20.148897 -7.670304 27.360852 -6.332346 -0.000002 0.000000 -16.838299 -10.267114 23.147989 -3.368665
2.845898 -39.906898 44.243206 483.120973 2.079717 2.905091 -0.672999 0.623896 5.369205 -12.861062 11.443734 -5.026797 0.000006 0.000000 4.415007 5.230300 -1.742987 -0.263243 -0.000002 -0.000000 10.273304 -27.755561 15.440554 0.143581 0.000001 -0.000005 2.173896 1.002632 -2.543387 -0.328694 2.359893 -0.565202 5.928104 -2.973792 5.358526 -28.906098 5.443687 -0.000004 -0.000000 -16.417755 29.310063 -73.565727 -0.000002 0.000004 -10.615801 569.269165 -127.632480 200.818285 0.000001 -0.000004 -13.110298 -158.278433 -169.568926 121.029108 -2.636607 -1.718802 6.889699 167.722740 -175.226263 177.057737 -4.139093 -0.000004 -0.000002 -11.835178 -354.159242 70.970624 -0.000002 0.000002 -10.471798 -6.321561 -37.961478 -27.198884 0.000003 -0.000002 -12.281891 2.137337 11.252905 64.098593 2.273403 0.176699 -2.517994 -143.692331 -151.166484 -168.898434 -0.000001 -0.000003 -20.456402 163.867727 142.649375 -166.509944 -0.000001 -0.000006 -16.635300 41.630420 0.664013 19.732487 -1.914799 0.018101 -2.699295 173.544998 182.366228 191.500131 0.000000 -0.000001 -20.148895 -7.508435 29.182260 -6.003972 -0.000004 0.000001 -16.838303 -10.309205 23.585328 -3.727842
